# xmcd CD database file
#
# Track frame offsets:
#	182
#	21632
#	41120
#	60782
#	81892
#	102310
#	122982
#	143405
#	161167
#	182440
#	205450
#	224425
#	243482
#	262385
#
# Disc length: 3750 seconds
#
# Revision: 5
# Processed by: cddbd v1.4PL0 Copyright (c) Steve Scherf et al.
# Submitted via: CDex 1.40Beta9
#
DISCID=d30ea40e
DTITLE=Deborah Cox - One Wish
DYEAR=1998
DGENRE=Dance
TTITLE0=September
TTITLE1=Its' Over Now
TTITLE2=Nobody's Supposed To Be Here
TTITLE3=We Can't Be Friends
TTITLE4=Couldn't We
TTITLE5=One Wish
TTITLE6=I Won't Give Up
TTITLE7=Just When I Think I'm Over You
TTITLE8=Love Is On The Way
TTITLE9=I Never Knew
TTITLE10=One Day You Will
TTITLE11=Nobody's Supposed To Be Here (Hex Hector Dance Mix)
TTITLE12=Things Just Ain't The Same (Hex Hector Dance Mix)
TTITLE13=September (Dance Mix)
EXTD=YEAR: 1998 ID3G: 3
EXTT0=
EXTT1=
EXTT2=
EXTT3=
EXTT4=
EXTT5=
EXTT6=
EXTT7=
EXTT8=
EXTT9=
EXTT10=
EXTT11=
EXTT12=
EXTT13=
PLAYORDER=
